<svg width="20" height="17" viewBox="0 0 20 17" fill="none" xmlns="http://www.w3.org/2000/svg">
<path d="M3.10938 14.7049C3.11033 14.7923 3.14031 14.8779 3.19628 14.9532C3.25225 15.0284 3.33224 15.0906 3.42815 15.1334C3.52407 15.1762 3.63251 15.1982 3.74252 15.197C3.85253 15.1959 3.96022 15.1717 4.05469 15.1269L17.1641 9.16237C17.2605 9.12167 17.3412 9.06089 17.3974 8.98654C17.4537 8.91219 17.4834 8.82707 17.4834 8.74033C17.4834 8.65358 17.4537 8.56846 17.3974 8.49411C17.3412 8.41976 17.2605 8.35898 17.1641 8.31828L4.05469 2.35375C3.96022 2.30895 3.85253 2.28475 3.74252 2.28361C3.63251 2.28247 3.52407 2.30442 3.42815 2.34724C3.33224 2.39006 3.25225 2.45224 3.19628 2.52749C3.14031 2.60274 3.11033 2.68839 3.10938 2.77579V14.7049Z" stroke="black" stroke-width="1.5" stroke-linecap="round" stroke-linejoin="round"/>
<path d="M3.29688 2.42212L13.7422 10.7203" stroke="black" stroke-width="1.5" stroke-linecap="round" stroke-linejoin="round"/>
<path d="M3.29688 15.0586L13.7422 6.76038" stroke="black" stroke-width="1.5" stroke-linecap="round" stroke-linejoin="round"/>
</svg>
